<svg id="Layer_1" data-name="Layer 1" xmlns="http://www.w3.org/2000/svg" viewBox="0 0 438.56 87.7"><defs><style>.cls-1{fill:#00a7e1;}.cls-2{fill:#334150;}</style></defs><path class="cls-1" d="M152,363.76a11.48,11.48,0,0,0,6.06-15.64c-.27-.52-1.82,0-1.6.43,2.63,5.08.59,12.54-5.08,14.6-1,.38-.09.87.62.61" transform="translate(-86.72 -329.54)"/><path class="cls-2" d="M249.2,362.61c0,8.6-7.44,26.78-35,26.78-1.7,0-3.29-.11-4.57-.21-.64,10.62-1.81,21.68-3.93,26.78a18.74,18.74,0,0,1-5.53,1.27c-2,0-4.14-1-4.36-4.57v-.85c0-4.35-.1-14.34-.1-27.42,0-10.62-.11-22.95-1.28-35.49a30.23,30.23,0,0,0-8,4.14,39.69,39.69,0,0,0-3.51,3.19,3.56,3.56,0,0,1-3.29-3.72c0-1.17,1.06-3,2.66-4.36a38.34,38.34,0,0,1,11.05-7.44c-.21-2-.64-3.93-1-5.95,0,0,4.36-3.29,8.82-3.29a6.59,6.59,0,0,1,2.45.42c1.49.64,2.66,2.45,3.51,5.1,2.12-.32,4.25-.42,6.37-.53,17.54,0,35.61,8.08,35.61,26.15m-16.8.74c0-12-6.69-18.28-19-18.28-1.49,0-2.87.11-4.46.21,1.27,9.14,1.27,20.41,1.27,26,0,3-.1,6.59-.21,10.52h1.7c12.43,0,20.72-6,20.72-18.49" transform="translate(-86.72 -329.54)"/><path class="cls-2" d="M291.28,406a8.82,8.82,0,0,1-5.21,1.59c-6.7,0-9-7.22-9.57-11.58-3,8.18-11.37,14-18.17,14-7.86,0-13.6-6.38-13.6-15.09,0-14.67,11.26-28.91,25.93-28.91,8.08,0,14.77,6.27,15.94,10.84-.85,3.82-.85,10.31-.85,13.28,0,4.68,2.87,13.08,5.53,15.84m-16.48-30.4c-.63-1.7-1.8-3-3.5-3-5.74,0-13,14.66-13,21.78,0,2.13.74,4.68,2.34,4.68,6.06,0,13-16.69,14.13-23.49" transform="translate(-86.72 -329.54)"/><path class="cls-1" d="M350.79,383.44c0,11.79-6.16,26.46-18.81,26.46-4.57,0-8.72-2.23-11.59-8.61-3.82,7.87-9.67,10.42-14,10.42-9.77,0-14.34-11.37-14.34-25.08,0-12.12,1.59-22.43,10.41-22.43a24.55,24.55,0,0,1,8,1.59c-2.12,2.87-4.46,13.08-4.46,22.54,0,7.65,1.38,14.34,5,14.34,4.25,0,6-8.82,6-14.56a43.91,43.91,0,0,0-.54-5.95,8.74,8.74,0,0,1,5-1.59c5.42,0,6.06,3.82,6.48,11.26.53,8,1.49,11.38,4.25,11.38,5.21,0,7.12-8.08,7.12-14.35,0-10.42-3.08-15.31-4.25-17.65a9,9,0,0,1,6.59-2.76c6.8,0,9.25,6.8,9.25,15" transform="translate(-86.72 -329.54)"/><path class="cls-2" d="M389.89,384.61c-3,0-7-.85-7-7.44,0-1.17-.11-3.3-.64-3.3-1.49,0-8.61,6.38-13.6,34.54a11.44,11.44,0,0,1-4.89,1c-9.67,0-9.78-9.88-9.78-17.64,0-4.15.21-8.61.21-12.12a38.78,38.78,0,0,0-1.48-12.11,12,12,0,0,1,7.86-3.41c3.4,0,6.48,2.13,6.8,7.44.11,2.77-.21,9.78.11,16,6.48-18.07,14.67-21.37,18.49-21.37,10.21,0,11,6.91,11,15.2v1.38a13,13,0,0,1-7,1.92" transform="translate(-86.72 -329.54)"/><path class="cls-2" d="M443.46,406a8.82,8.82,0,0,1-5.21,1.59c-6.7,0-9-7.22-9.57-11.58-3,8.18-11.37,14-18.17,14-7.87,0-13.6-6.38-13.6-15.09,0-14.67,11.26-28.91,25.93-28.91,8.07,0,14.77,6.27,15.94,10.84-.85,3.82-.85,10.31-.85,13.28,0,4.68,2.87,13.08,5.53,15.84M427,375.57c-.64-1.7-1.81-3-3.51-3-5.73,0-13,14.66-13,21.78,0,2.13.74,4.68,2.34,4.68,6.06,0,13-16.69,14.13-23.49" transform="translate(-86.72 -329.54)"/><path class="cls-2" d="M489.89,407.24c-.21,1.7-2.44,3.19-5.95,3.19-4.46,0-7.22-3.82-8.82-9.24-2.87,4.88-7.54,8.5-14.24,8.5-23.27,0-22.32-40.6-.1-40.6a16.87,16.87,0,0,1,11.79,5v-1.8c0-20.3,1.6-32.84,10.31-32.84,2.34,0,4.25,1.27,6.7,3.72-3.72,10.41-4.89,22.64-4.89,33.48,0,13.81.1,24,5.2,30.6m-17.43-23.17c-1.8-3.29-4.14-5.95-8-5.95s-7.12,4.47-7.12,11.8c0,8.08,3.19,11.16,6.27,11.16,3.51,0,7.76-5.31,8.82-17" transform="translate(-86.72 -329.54)"/><path class="cls-2" d="M525.28,401.72c0,5.74-7.33,9.67-14.13,9.67-8.93,0-21.15-6.7-21.15-22.64,0-12.11,7.33-23.81,19.13-23.81,7.75,0,13.39,4.47,13.39,12.55,0,10.2-9.46,16.47-16.58,20.08,1.81,3.3,4.25,4.57,6.8,4.57,4.78,0,8.08-3.93,10-5.74,2.34,1,2.55,3.51,2.55,5.32M503.6,385.56a41.72,41.72,0,0,0,.32,5.42c5.31-3.61,10.52-7.76,10.52-13.92,0-3.4-3.29-3.61-4.68-3.61-2.44,0-6.16,3.5-6.16,12.11" transform="translate(-86.72 -329.54)"/><path class="cls-1" d="M145.14,367.55c-4.62-4.71-9.09-10-15.91-11.27-5.82-1.11-11,1.42-15.32,5.2-5.68,5-11.86,10.51-16.53,16.48-4,5.08-6.74,11.19-5.78,17.76,1.05,7.13,6.4,13.89,13.46,15.77s13.93-.69,20-4.23c4.82,3.26,10.27,6.07,16.22,5.63,6.4-.48,12-4.7,15.62-9.83,9.8-14.06-2.16-25.76-11.71-35.51m3.11,38.15c-6.83,5.81-14.25,1.52-20.44-2.9a2.1,2.1,0,0,0-.8-.32c-4.32-3.28-9-7.19-11.3-12a10.56,10.56,0,0,1-1.14-3.58c-.33-3.67.53-4,3.75-4.72,4.69-1.1,2.39.57,5.57,1.2s5.4-3.17,8.21-2.61c3.19.64,5.29,2.84,5.22,6.15-.1,4.61-2.56,7.82-5.82,10.75a1.22,1.22,0,0,0,.6,2.26,4.82,4.82,0,0,0,4.1-1.1,31.38,31.38,0,0,0,4.2-5.12,16.42,16.42,0,0,0,2.38-4.93,7.91,7.91,0,0,0-3.5-9.26,11.64,11.64,0,0,0-8.29-1.13,14.51,14.51,0,0,0-4.17,1.33,1.64,1.64,0,0,0-.26.17,9.89,9.89,0,0,0-7-1.73c-3.29.34-6.91,1.7-9,4.34-6.32,7.81,4.77,17.26,11,22-6.81,3.89-14.66,5.19-20.35-1.66a16.92,16.92,0,0,1-2.09-18.32c2.78-5.8,7.77-10,12.36-14.37,4.82-4.56,9.83-11.92,17.37-9.21,5.61,2,9.75,8,13.88,12,4.28,4.18,9,8.56,11,14.35,2.4,6.81-.08,13.79-5.49,18.4" transform="translate(-86.72 -329.54)"/><path class="cls-1" d="M148.63,379.37c-.34-.46-2.43.24-2,.78,6.23,8.5,6.43,17.7-.69,25.51a1.83,1.83,0,0,0-.46.3,19.59,19.59,0,0,1-1.77,1.53c-.33.27-.59.75-.14,1.05a1.52,1.52,0,0,0,1.56-.15,27.28,27.28,0,0,0,2.14-1.87.52.52,0,0,0,.17-.4c7.83-8.13,7.82-17.74,1.23-26.75" transform="translate(-86.72 -329.54)"/><path class="cls-1" d="M106.62,352.92c-2-5.43-7-9.53-13-7.76-5.86,1.72-8.09,8.13-6.32,13.63s6.86,9.31,12.58,7.86c6.28-1.6,8.3-8,6.73-13.73m-7.2,10c-2.86,1.28-5.67-3.7-6.32-5.68s-1.23-7.27,1.4-8.45c2.91-1.3,5.61,3.73,6.32,5.68s1.31,7.24-1.4,8.45" transform="translate(-86.72 -329.54)"/><path class="cls-1" d="M100.81,362.1c-5.62-2-7.93-9.41-5.28-14.55.39-.76-1.22-.71-1.51-.13-2.94,5.69-.27,13.47,5.85,15.69.63.22,1.87-.68.94-1" transform="translate(-86.72 -329.54)"/><path class="cls-1" d="M116.84,348.47c-5.62-2-7.92-9.35-5.27-14.49.41-.79-1.2-.8-1.53-.18-2.93,5.7-.26,13.52,5.88,15.74.67.25,1.86-.72.92-1.07" transform="translate(-86.72 -329.54)"/><path class="cls-1" d="M135.86,350.16a11.34,11.34,0,0,0,6.08-15.52c-.2-.4-1.73.16-1.59.43,2.61,5,.63,12.65-5,14.71-1.07.38-.07.61.56.38" transform="translate(-86.72 -329.54)"/><path class="cls-1" d="M123.88,338.4c-2-5.53-6.92-10.11-13.18-8.56-6.49,1.6-8.74,8.77-6.86,14.67,1.74,5.41,6.81,9.89,12.76,8.65,6.94-1.45,8.94-8.62,7.28-14.76m-8.68,10.84c-2.76-.34-4.82-4-5.56-6.29s-1.29-7.47,1.37-9.05c3.18-1.89,6.31,4,7.07,6.05.63,2.31,1.45,9.82-2.88,9.29" transform="translate(-86.72 -329.54)"/><path class="cls-1" d="M158.8,344.85c-6-1.33-11.31,3.26-13.26,8.56,0,.1,0,.2-.08.3a1.57,1.57,0,0,0-.09.23c-1.46,5.35.27,12.2,6.61,13.06,5.81.79,11-3.68,12.68-9s.06-11.87-5.86-13.19m.12,13.13c-.8,2.53-3.47,6.68-6.35,4.07-2.3-2.09-2.12-5.58-1.41-8.34.91-2.35,3.07-6.31,6-4.42,2.69,1.73,2.62,6.07,1.78,8.69" transform="translate(-86.72 -329.54)"/><path class="cls-1" d="M141.38,330.29c-6.08-.25-11.18,3.85-13.21,9.36-1.53,5.65.06,12.89,7.07,13a13.62,13.62,0,0,0,12.9-9.36c1.74-5.45-.1-12.7-6.76-13m1,13.92c-1,3-3.65,7.76-7,4.39-2.55-2.58-2.4-6.7-1.53-9.91,1.08-2.93,3.58-7.84,7-4.39,2.48,2.51,2.52,6.78,1.53,9.91" transform="translate(-86.72 -329.54)"/><path class="cls-1" d="M97.26,388.59c-.78,8.93,5.33,15.46,12.38,20,.76.48,2.69-.57,1.69-1.22-6.68-4.25-12.61-10.44-11.87-18.93.09-1.07-2.12-.74-2.2.19" transform="translate(-86.72 -329.54)"/></svg>